# xmcd
#
# Track frame offsets:
#	150
#	13037
#	21993
#	34577
#	49168
#	61460
#	74642
#	88993
#	100815
#	115067
#	128549
#	141802
#
# Disc length: 2053 seconds
#
# Revision: 0
# Processed by: cddbd v1.5.2PL0 Copyright (c) Steve Scherf et al.
# Submitted via: dBpowerAMP V4.0
#
DISCID=a608030c
DTITLE=Percy Sledge - Memories Of Percy Sledge CD1
DYEAR=1900
DGENRE=
TTITLE0=When A Man Loves A Woman
TTITLE1=Walkin' In The Sun
TTITLE2=Behind Closed Doors
TTITLE3=If This Is The Last Time
TTITLE4=Sudden Stop
TTITLE5=Take Time To Know Her
TTITLE6=Love Away People
TTITLE7=The Good Love
TTITLE8=Hard To Be Friends
TTITLE9=I Believe In You
TTITLE10=I've Been Loning You Too Long
TTITLE11=It Tears Me Up
EXTD=Memories Of Percy Sledge
EXTT0=
EXTT1=
EXTT2=
EXTT3=
EXTT4=
EXTT5=
EXTT6=
EXTT7=
EXTT8=
EXTT9=
EXTT10=
EXTT11=
PLAYORDER=
